<svg width="4" height="4" viewBox="0 0 4 4" fill="none" xmlns="http://www.w3.org/2000/svg">
<path d="M1.20833 0.36H1.16667C1.18958 0.36 1.20833 0.342 1.20833 0.32V0.36H2.79167V0.32C2.79167 0.342 2.81042 0.36 2.83333 0.36H2.79167V0.72H3.16667V0.32C3.16667 0.1435 3.01719 0 2.83333 0H1.16667C0.982813 0 0.833333 0.1435 0.833333 0.32V0.72H1.20833V0.36ZM3.83333 0.72H0.166667C0.0744792 0.72 0 0.7915 0 0.88V1.04C0 1.062 0.01875 1.08 0.0416667 1.08H0.35625L0.484896 3.695C0.493229 3.8655 0.640104 4 0.817708 4H3.18229C3.36042 4 3.50677 3.866 3.5151 3.695L3.64375 1.08H3.95833C3.98125 1.08 4 1.062 4 1.04V0.88C4 0.7915 3.92552 0.72 3.83333 0.72ZM3.14219 3.64H0.857813L0.731771 1.08H3.26823L3.14219 3.64Z" fill="white"/>
</svg>
